<?xml version="1.0" encoding="UTF-8" standalone="no"?>
<!DOCTYPE svg PUBLIC "-//W3C//DTD SVG 1.1//EN" "http://www.w3.org/Graphics/SVG/1.1/DTD/svg11.dtd">
<svg width="100%" height="100%" viewBox="0 0 745 141" version="1.1" xmlns="http://www.w3.org/2000/svg" xmlns:xlink="http://www.w3.org/1999/xlink" xml:space="preserve" xmlns:serif="http://www.serif.com/" style="fill-rule:evenodd;clip-rule:evenodd;stroke-linejoin:round;stroke-miterlimit:1.41421;">
    <g transform="matrix(4.16667,0,0,4.16667,0,0)">
        <path d="M19.235,4.022C19.6,4.022 20.356,5.059 20.356,5.423C20.356,5.591 20.215,5.703 19.963,5.871C17.387,7.943 11.255,16.371 11.255,21.719C11.255,21.914 11.228,21.998 11.144,21.998C11.06,21.998 10.416,21.69 10.416,21.186C10.416,15.67 17.611,4.022 19.235,4.022ZM27.188,2.203C27.188,2.791 26.6,3.015 25.507,3.015C23.688,3.015 19.991,2.707 16.016,2.707C7.447,2.707 1.399,7.299 1.399,12.535C1.399,14.327 2.576,15.307 4.171,15.307C8.091,15.307 11.452,10.351 12.067,8.951C12.124,8.811 12.18,8.755 12.235,8.755C12.319,8.755 12.403,8.811 12.403,8.923C12.403,9.007 12.376,9.119 12.292,9.314C11.815,10.603 8.903,15.894 4.62,15.894C2.324,15.894 0,14.495 0,11.834C0,6.739 6.916,1.783 20.02,1.783C26.543,1.783 26.376,0.691 26.6,0.691C26.823,0.691 27.188,1.307 27.188,2.203Z" style="fill:rgb(3,4,4);fill-rule:nonzero;"/>
        <path d="M26.095,5.703C24.051,5.703 20.327,11.022 18.675,14.943C19.431,14.159 26.319,8.25 26.319,5.955C26.319,5.787 26.235,5.703 26.095,5.703ZM23.603,18.666C23.071,18.666 22.119,17.854 22.119,17.155C22.119,15.111 24.079,13.206 24.079,13.039C24.079,12.955 24.023,12.871 23.883,12.871C23.267,12.871 19.459,15.279 18.059,18.051C17.499,19.199 17.359,19.843 17.191,19.843C16.827,19.843 16.379,19.254 16.379,18.779C16.379,13.458 22.791,4.611 25.451,4.611C26.123,4.611 26.851,5.227 26.851,5.759C26.851,8.475 19.627,14.411 18.423,15.586C18.115,16.343 17.919,17.042 17.863,17.602C19.179,15.027 23.379,12.367 23.995,12.367C24.359,12.367 25.535,13.122 25.535,13.935C25.535,14.747 23.323,16.539 23.323,17.715C23.323,18.051 23.491,18.219 23.743,18.219C25.171,18.219 27.775,15.643 27.775,15.643C27.775,15.643 27.887,15.531 27.971,15.531C28.027,15.531 28.083,15.615 28.083,15.643C28.083,15.699 27.859,15.894 27.775,15.978C27.775,15.978 25.115,18.666 23.603,18.666Z" style="fill:rgb(3,4,4);fill-rule:nonzero;"/>
        <path d="M31.554,12.814C31.554,12.591 31.47,12.507 31.331,12.507C30.855,12.507 29.623,13.599 28.782,15.643C30.043,14.803 31.554,13.458 31.554,12.814ZM31.583,17.435C31.722,17.294 31.807,17.21 31.862,17.21C31.918,17.21 31.975,17.267 31.975,17.323C31.975,17.407 31.891,17.546 31.694,17.743C31.134,18.303 30.49,19.002 29.342,19.002C28.194,19.002 27.158,18.106 27.158,16.651C27.158,14.131 29.678,11.498 30.91,11.498C31.667,11.498 32.143,12.451 32.143,12.787C32.143,13.571 30.294,15.055 28.754,16.007C28.698,16.175 28.67,16.679 28.67,16.874C28.67,17.827 29.174,18.471 29.93,18.471C30.519,18.471 31.134,17.854 31.583,17.435Z" style="fill:rgb(3,4,4);fill-rule:nonzero;"/>
        <path d="M52.582,14.131C52.582,14.354 52.694,14.551 53.478,14.551C54.29,14.551 55.326,14.299 56.446,13.851C55.802,13.571 55.074,13.403 54.262,13.403C53.422,13.403 52.582,13.71 52.582,14.131ZM58.07,2.343C58.406,2.343 59.218,3.267 59.218,3.631C59.218,3.77 59.134,3.911 58.882,4.079C55.97,6.067 48.354,17.21 48.354,22.195C48.354,22.418 48.326,22.502 48.242,22.502C48.13,22.502 47.29,22.166 47.29,21.663C47.29,16.79 56.446,2.343 58.07,2.343ZM61.234,1.055C52.554,1.055 39.646,7.691 39.646,14.047C39.646,15.559 40.374,16.539 41.662,16.539C44.686,16.539 47.374,14.27 49.138,10.603C49.222,10.435 49.278,10.323 49.362,10.323C49.446,10.323 49.474,10.378 49.474,10.463C49.474,10.547 49.446,10.715 49.362,10.938C47.962,14.719 45.078,17.015 42.138,17.015C40.178,17.015 37.966,15.307 37.966,13.403C37.966,6.291 51.826,0.691 61.318,0.691C65.714,0.691 68.066,2.595 68.066,5.171C68.066,8.223 62.858,12.394 58.378,14.411C60.226,15.726 61.346,17.854 61.346,19.982C61.346,20.179 60.394,21.159 60.254,21.159C60.17,21.159 60.114,21.075 60.114,20.851C60.114,18.666 59.414,16.175 57.762,14.69C56.362,15.279 55.046,15.615 54.038,15.615C53.086,15.615 52.106,14.998 52.106,14.215C52.106,13.571 53.226,13.122 54.234,13.122C55.186,13.122 56.082,13.319 56.894,13.626C61.234,11.695 66.526,7.075 66.526,3.938C66.526,2.371 65.322,1.055 61.234,1.055Z" style="fill:rgb(3,4,4);fill-rule:nonzero;"/>
        <path d="M67.534,12.814C67.534,12.591 67.45,12.507 67.31,12.507C66.834,12.507 65.742,13.599 64.902,15.643C66.162,14.803 67.534,13.458 67.534,12.814ZM70.418,15.531C70.502,15.531 70.53,15.615 70.53,15.643C70.53,15.699 70.334,15.894 70.25,15.978C70.25,15.978 67.478,19.002 65.322,19.002C63.894,19.002 63.138,18.106 63.138,16.651C63.138,14.131 65.658,11.498 66.89,11.498C67.646,11.498 68.122,12.451 68.122,12.787C68.122,13.571 66.414,15.055 64.874,16.007C64.818,16.175 64.79,16.679 64.79,16.874C64.79,17.743 65.21,18.471 66.022,18.471C67.506,18.471 70.25,15.643 70.25,15.643C70.25,15.643 70.362,15.531 70.418,15.531Z" style="fill:rgb(3,4,4);fill-rule:nonzero;"/>
        <path d="M66.33,28.018C68.71,28.018 70.978,24.602 72.602,21.495C68.794,22.195 65.238,24.351 65.238,26.871C65.238,27.626 65.798,28.018 66.33,28.018ZM72.35,12.059C72.658,12.059 73.582,12.814 73.582,13.347C73.582,14.075 70.726,17.378 70.726,18.33C70.726,18.498 70.838,18.582 71.034,18.582C71.622,18.582 73.75,17.294 75.206,15.586C76.634,13.851 77.754,11.723 78.398,11.723C78.566,11.723 78.818,12.086 78.818,12.255C78.818,12.339 78.706,12.394 78.622,12.478C77.894,12.982 77.418,13.626 76.774,15.334C76.242,16.79 75.514,18.779 74.59,20.767L74.786,20.767C76.662,20.767 77.082,21.719 77.082,21.914C77.082,21.971 77.026,22.027 76.97,22.027C76.83,22.027 76.662,21.27 75.122,21.27C74.87,21.27 74.59,21.27 74.338,21.299C72.518,25.051 70.082,28.69 66.974,28.69C65.658,28.69 64.874,27.794 64.874,26.871C64.874,23.958 69.326,21.635 72.882,20.962C74.058,18.582 74.814,16.482 74.814,16.482C73.778,17.575 71.538,19.031 70.782,19.031C70.362,19.031 69.438,18.527 69.438,17.351C69.438,16.119 72.126,13.403 72.126,12.255C72.126,12.115 72.21,12.059 72.35,12.059Z" style="fill:rgb(3,4,4);fill-rule:nonzero;"/>
        <path d="M81.758,13.347C81.758,13.851 81.002,14.914 80.386,15.978C81.422,15.166 84.418,13.179 85.482,13.179C85.93,13.179 86.266,13.991 86.266,14.354C86.266,14.663 84.138,16.763 84.138,18.247C84.138,18.498 84.306,18.611 84.53,18.611C86.238,18.611 89.234,15.643 89.234,15.643C89.234,15.643 89.346,15.531 89.402,15.531C89.486,15.531 89.542,15.615 89.542,15.643C89.542,15.699 89.234,15.978 89.234,15.978C89.234,15.978 86.014,19.17 84.53,19.17C83.83,19.17 82.934,18.303 82.934,17.378C82.934,16.146 84.25,14.383 84.25,14.186C84.25,14.159 84.222,14.131 84.166,14.131C83.858,14.131 81.702,15.195 80.162,16.622C78.37,18.274 78.146,19.646 77.894,19.646C77.614,19.646 77.138,18.947 77.138,18.358C77.138,17.799 79.994,14.383 80.386,12.226C80.386,12.002 80.526,11.975 80.666,11.975C80.946,11.975 81.758,12.619 81.758,13.347Z" style="fill:rgb(3,4,4);fill-rule:nonzero;"/>
        <path d="M89.682,17.799C89.682,18.303 89.99,18.723 90.466,18.723C90.886,18.723 91.446,18.471 92.006,18.051C91.082,17.967 90.298,17.659 89.794,17.126C89.71,17.351 89.682,17.575 89.682,17.799ZM92.482,12.283C92.818,12.283 93.378,13.067 93.378,13.347C93.378,13.515 93.182,13.626 93.014,13.71C91.978,14.327 90.55,15.559 89.934,16.79C90.41,17.407 91.25,17.77 92.258,17.827C93.434,16.79 94.582,14.998 94.582,13.179C94.582,12.255 94.05,11.666 92.958,11.666C91.866,11.666 89.878,12.955 89.542,14.803C89.99,14.075 90.606,13.515 91.194,13.011C91.642,12.619 92.118,12.283 92.482,12.283ZM92.678,18.051C91.866,18.695 91.11,19.059 90.746,19.059C90.074,19.059 88.87,18.387 88.87,17.099C88.87,16.539 88.982,16.035 89.178,15.559C89.178,15.502 89.15,15.447 89.15,15.363C89.15,12.982 91.726,11.275 93.21,11.275C94.47,11.275 95.394,12.086 95.394,13.263C95.394,15.111 94.19,16.706 92.986,17.77C94.666,17.659 96.122,16.511 96.99,15.643C96.99,15.643 97.074,15.531 97.158,15.531C97.242,15.531 97.298,15.615 97.298,15.643C97.298,15.699 97.074,15.894 96.99,15.978C96.15,16.735 94.834,17.967 92.678,18.051Z" style="fill:rgb(3,4,4);fill-rule:nonzero;"/>
        <path d="M105.25,5.787C105.25,5.535 105.082,5.423 104.886,5.423C103.318,5.423 99.482,11.918 98.754,14.663C100.938,12.507 105.25,7.495 105.25,5.787ZM103.29,15.643C103.346,15.586 103.402,15.531 103.458,15.531C103.542,15.531 103.57,15.615 103.57,15.643C103.57,15.699 103.374,15.894 103.29,15.978C103.29,15.978 99.65,19.423 98.11,19.423C97.354,19.423 96.71,18.863 96.71,17.715C96.71,12.394 102.17,4.275 104.298,4.275C105.11,4.275 105.754,5.002 105.754,5.814C105.754,7.719 101.246,12.759 98.53,15.307C98.53,15.307 97.998,16.763 97.998,17.911C97.998,18.582 98.306,18.807 98.698,18.807C99.818,18.807 103.29,15.643 103.29,15.643Z" style="fill:rgb(3,4,4);fill-rule:nonzero;"/>
        <path d="M115.358,5.675C113.958,5.675 111.466,9.958 110.402,13.347C113.174,10.239 115.666,6.879 115.666,5.983C115.666,5.814 115.554,5.675 115.358,5.675ZM111.214,20.235C111.27,20.235 111.326,20.29 111.326,20.347C111.326,20.458 111.214,20.515 111.074,20.515C109.87,20.515 108.386,19.143 108.33,16.007C106.314,17.995 104.438,19.478 103.542,19.478C103.038,19.478 102.142,18.639 102.142,17.967C102.142,15.923 105.278,12.31 106.622,12.31C107.546,12.31 108.302,12.703 108.302,12.955C108.302,13.039 108.246,13.095 108.134,13.095C106.538,13.095 103.43,17.239 103.43,18.75C103.43,18.918 103.542,19.002 103.626,19.002C104.55,19.002 106.37,17.546 108.33,15.559C108.582,11.219 112.754,4.359 115.078,4.359C115.666,4.359 116.17,5.002 116.17,5.73C116.17,6.935 113.286,10.659 110.234,14.018C110.038,14.747 109.842,15.25 109.842,16.847C109.842,18.639 110.542,20.122 111.214,20.235Z" style="fill:rgb(3,4,4);fill-rule:nonzero;"/>
        <path d="M111.102,17.715C111.102,18.022 111.69,18.443 112.586,18.443C113.51,18.443 114.154,17.602 114.35,16.706C112.922,16.79 111.718,17.323 111.382,17.435C111.158,17.518 111.102,17.602 111.102,17.715ZM114.154,14.606C113.454,15.363 112.838,15.978 112.838,15.978C112.782,16.035 112.726,16.091 112.698,16.091C112.642,16.091 112.586,16.035 112.586,15.978C112.586,15.894 112.698,15.783 112.838,15.643C112.838,15.643 113.342,15.111 114.042,14.354C113.902,13.991 113.762,13.683 113.762,13.206C113.762,12.143 115.19,10.995 115.694,10.995C116.086,10.995 116.702,11.639 116.702,12.002C116.702,12.423 114.882,13.151 114.882,14.186C114.882,15.166 115.442,15.586 115.666,16.511C116.562,16.651 117.01,16.931 117.01,17.071C117.01,17.183 116.842,17.323 116.73,17.323C116.646,17.323 116.338,16.987 115.694,16.819C115.722,16.958 115.75,17.126 115.75,17.294C115.75,18.527 114.518,19.675 113.174,19.675C111.83,19.675 110.626,18.358 110.626,17.631C110.626,17.435 110.766,17.267 111.046,17.155C111.494,16.987 113.174,16.566 114.378,16.482C114.406,16.371 114.406,16.259 114.406,16.146C114.406,15.447 114.294,14.998 114.154,14.606Z" style="fill:rgb(3,4,4);fill-rule:nonzero;"/>
        <path d="M145.933,12.646C142.741,13.122 139.493,14.383 136.833,14.803C134.873,17.575 133.193,20.29 133.193,22.475C133.193,22.951 133.221,23.146 133.221,23.287C133.221,23.371 133.165,23.427 133.109,23.427C132.997,23.427 131.485,22.726 131.485,22.055C131.485,20.206 132.997,17.631 134.845,14.914C133.613,14.663 132.997,13.458 132.997,13.263C132.997,13.206 133.025,13.179 133.081,13.179C133.221,13.179 133.781,13.878 135.125,13.878L135.545,13.878C138.401,9.791 141.705,5.562 141.705,2.987C141.705,2.007 141.173,1.195 139.633,1.195C134.509,1.195 124.821,7.803 124.821,13.907C124.821,15.055 125.717,15.726 126.529,15.726C129.889,15.726 132.969,11.106 133.921,9.119C134.005,8.923 134.061,8.839 134.145,8.839C134.229,8.839 134.285,8.923 134.285,9.007C134.285,9.175 134.145,9.511 133.921,9.958C133.221,11.527 130.449,16.427 127.313,16.427C125.605,16.427 123.365,14.69 123.365,13.067C123.365,6.794 133.725,0.691 139.045,0.691C141.285,0.691 143.161,2.287 143.161,3.967C143.161,6.487 140.305,10.042 137.673,13.655C140.221,13.29 143.497,12.562 146.157,12.226C148.341,7.579 150.861,4.359 152.373,2.679C152.737,2.259 153.073,2.062 153.297,2.062C153.661,2.062 154.277,3.099 154.277,3.463C154.277,3.631 154.109,3.715 153.913,3.911C152.373,5.283 149.601,8.25 147.781,12.059C148.537,12.059 149.741,12.115 149.741,12.759C149.741,12.843 149.685,12.898 149.601,12.898C149.489,12.898 149.685,12.451 148.229,12.451C147.977,12.451 147.753,12.451 147.501,12.478C146.241,14.83 144.589,18.303 144.589,20.739C144.589,20.962 144.561,21.046 144.449,21.046C144.365,21.046 143.609,20.71 143.609,20.206C143.609,18.163 144.701,14.971 145.933,12.646Z" style="fill:rgb(3,4,4);fill-rule:nonzero;"/>
        <path d="M150.021,17.799C150.021,18.303 150.329,18.723 150.805,18.723C151.225,18.723 151.785,18.471 152.345,18.051C151.421,17.967 150.637,17.659 150.133,17.126C150.049,17.351 150.021,17.575 150.021,17.799ZM152.821,12.283C153.157,12.283 153.717,13.067 153.717,13.347C153.717,13.515 153.521,13.626 153.353,13.71C152.317,14.327 150.889,15.559 150.273,16.79C150.749,17.407 151.589,17.77 152.597,17.827C153.773,16.79 154.921,14.998 154.921,13.179C154.921,12.255 154.389,11.666 153.297,11.666C152.205,11.666 150.217,12.955 149.881,14.803C150.329,14.075 150.945,13.515 151.533,13.011C151.981,12.619 152.457,12.283 152.821,12.283ZM153.017,18.051C152.205,18.695 151.449,19.059 151.085,19.059C150.413,19.059 149.209,18.387 149.209,17.099C149.209,16.539 149.321,16.035 149.517,15.559C149.517,15.502 149.489,15.447 149.489,15.363C149.489,12.982 152.065,11.275 153.549,11.275C154.809,11.275 155.733,12.086 155.733,13.263C155.733,15.111 154.529,16.706 153.325,17.77C155.005,17.659 156.461,16.511 157.329,15.643C157.329,15.643 157.413,15.531 157.497,15.531C157.581,15.531 157.637,15.615 157.637,15.643C157.637,15.699 157.413,15.894 157.329,15.978C156.489,16.735 155.173,17.967 153.017,18.051Z" style="fill:rgb(3,4,4);fill-rule:nonzero;"/>
        <path d="M160.661,13.626C160.661,14.383 157.721,17.575 157.721,18.918C157.721,19.059 157.833,19.199 157.973,19.199C159.009,19.199 162.957,14.102 163.909,14.102C164.301,14.102 164.805,14.83 164.805,15.279C164.805,15.754 163.853,17.015 163.853,17.743C163.853,17.938 163.964,18.051 164.217,18.051C165.533,18.051 168.081,15.643 168.081,15.643C168.081,15.643 168.192,15.531 168.276,15.531C168.333,15.531 168.389,15.615 168.389,15.643C168.389,15.699 168.165,15.894 168.081,15.978C168.081,15.978 165.42,18.555 163.741,18.555C163.125,18.555 162.425,18.19 162.425,17.239C162.425,16.539 162.705,16.062 162.705,15.67C162.705,15.643 162.677,15.586 162.593,15.586C162.145,15.586 158.841,19.759 157.917,19.759C157.356,19.759 156.349,19.143 156.349,18.106C156.349,16.203 159.316,13.374 159.316,12.255C159.316,12.115 159.373,12.059 159.541,12.059C159.96,12.059 160.661,12.871 160.661,13.626Z" style="fill:rgb(3,4,4);fill-rule:nonzero;"/>
        <path d="M169.424,17.407C168.08,17.323 167.24,17.126 166.82,17.126C166.68,17.126 166.624,17.183 166.624,17.294C166.624,17.602 166.932,18.443 167.828,18.443C168.472,18.443 169.088,18.135 169.424,17.407ZM168.416,19.675C167.072,19.675 166.148,17.938 166.148,17.21C166.148,17.015 166.26,16.819 166.54,16.819C167.156,16.819 168.08,17.071 169.508,17.126C169.592,16.847 169.648,16.539 169.648,16.146C169.648,15.447 169.536,14.998 169.396,14.606C168.752,15.334 168.444,15.643 168.08,15.978C168.024,16.035 167.968,16.062 167.94,16.062C167.884,16.062 167.828,16.007 167.828,15.951C167.828,15.867 167.94,15.783 168.08,15.643C168.08,15.643 168.612,15.195 169.284,14.354C169.144,13.991 169.004,13.683 169.004,13.206C169.004,12.143 170.432,10.995 170.936,10.995C171.328,10.995 171.944,11.639 171.944,12.002C171.944,12.423 170.124,13.151 170.124,14.186C170.124,15.391 170.88,15.754 170.992,17.042C171.972,16.903 172.952,16.482 173.792,15.643C173.792,15.643 173.904,15.531 173.96,15.531C174.016,15.531 174.072,15.615 174.072,15.643C174.072,15.699 173.876,15.894 173.792,15.978C172.98,16.79 172,17.183 171.02,17.323C171.02,18.471 169.76,19.675 168.416,19.675Z" style="fill:rgb(3,4,4);fill-rule:nonzero;"/>
        <path d="M177.572,12.814C177.572,12.591 177.488,12.507 177.348,12.507C176.872,12.507 175.64,13.599 174.8,15.643C176.06,14.803 177.572,13.458 177.572,12.814ZM177.6,17.435C177.74,17.294 177.824,17.21 177.88,17.21C177.936,17.21 177.992,17.267 177.992,17.323C177.992,17.407 177.908,17.546 177.712,17.743C177.152,18.303 176.508,19.002 175.36,19.002C174.212,19.002 173.176,18.106 173.176,16.651C173.176,14.131 175.696,11.498 176.928,11.498C177.684,11.498 178.16,12.451 178.16,12.787C178.16,13.571 176.312,15.055 174.772,16.007C174.716,16.175 174.688,16.679 174.688,16.874C174.688,17.827 175.192,18.471 175.948,18.471C176.536,18.471 177.152,17.854 177.6,17.435Z" style="fill:rgb(3,4,4);fill-rule:nonzero;"/>
        <path d="M20.47,33.83C20.47,33.871 20.44,33.891 20.38,33.891L20.28,33.891L20.07,33.891L19.81,33.891L18.74,33.891L18.7,33.891C18.586,33.891 18.53,33.873 18.53,33.838C18.53,33.792 18.603,33.767 18.75,33.761C18.95,33.747 19.055,33.724 19.065,33.69C19.075,33.657 19.08,33.512 19.08,33.257L19.08,30.014C19.08,29.752 19.073,29.6 19.06,29.556C19.046,29.513 18.997,29.487 18.91,29.48L18.71,29.48L18.61,29.48C18.55,29.48 18.52,29.457 18.52,29.411C18.52,29.364 18.563,29.341 18.65,29.341C18.643,29.341 18.663,29.341 18.71,29.341L20.3,29.341C20.406,29.341 20.46,29.367 20.46,29.42C20.46,29.46 20.346,29.484 20.12,29.491C20.026,29.491 19.97,29.506 19.95,29.536C19.93,29.565 19.92,29.657 19.92,29.81L19.92,33.58C19.92,33.647 19.945,33.69 19.995,33.71C20.045,33.73 20.163,33.747 20.35,33.761C20.43,33.768 20.47,33.79 20.47,33.83Z" style="fill:rgb(3,4,4);fill-rule:nonzero;"/>
        <path d="M26.31,29.411C26.31,29.457 26.236,29.48 26.09,29.48C26.07,29.48 26.023,29.48 25.95,29.48L25.84,29.48C25.78,29.48 25.745,29.494 25.735,29.521C25.725,29.548 25.72,29.638 25.72,29.792L25.72,33.478C25.72,33.72 25.716,33.86 25.71,33.9C25.703,33.94 25.673,33.96 25.62,33.96C25.546,33.96 25.309,33.681 24.909,33.122C24.862,33.048 24.79,32.948 24.69,32.82C24.677,32.8 24.64,32.75 24.581,32.67C24.247,32.227 23.644,31.396 22.77,30.177L22.77,33.348C22.77,33.596 22.805,33.727 22.875,33.74C22.945,33.754 23.073,33.761 23.26,33.761L23.3,33.761C23.38,33.761 23.42,33.783 23.42,33.826C23.42,33.876 23.346,33.9 23.2,33.9C23.173,33.9 23.063,33.894 22.87,33.881C22.77,33.874 22.68,33.871 22.6,33.871C22.533,33.871 22.466,33.874 22.4,33.881C22.273,33.894 22.136,33.9 21.99,33.9C21.883,33.9 21.83,33.876 21.83,33.826C21.83,33.783 21.893,33.761 22.02,33.761L22.11,33.761L22.24,33.75C22.4,33.737 22.483,33.707 22.49,33.66C22.496,33.633 22.5,33.536 22.5,33.368L22.5,30.599C22.5,30.095 22.47,29.793 22.41,29.692C22.33,29.558 22.173,29.491 21.94,29.491C21.773,29.491 21.69,29.462 21.69,29.406C21.69,29.362 21.733,29.341 21.82,29.341L23.09,29.341L25.45,32.59L25.45,29.81C25.45,29.644 25.443,29.547 25.43,29.52C25.417,29.494 25.363,29.48 25.27,29.48C25.183,29.48 25.113,29.48 25.06,29.48L25,29.48C24.873,29.48 24.81,29.455 24.81,29.406C24.81,29.375 24.841,29.356 24.905,29.35C24.968,29.344 25.193,29.341 25.58,29.341C25.946,29.341 26.16,29.344 26.22,29.35C26.28,29.355 26.31,29.375 26.31,29.411Z" style="fill:rgb(3,4,4);fill-rule:nonzero;"/>
        <path d="M32.06,29.411C32.06,29.457 31.986,29.48 31.84,29.48C31.82,29.48 31.773,29.48 31.7,29.48L31.59,29.48C31.53,29.48 31.495,29.494 31.485,29.521C31.475,29.548 31.47,29.638 31.47,29.792L31.47,33.478C31.47,33.72 31.466,33.86 31.46,33.9C31.453,33.94 31.423,33.96 31.37,33.96C31.296,33.96 31.059,33.681 30.659,33.122C30.612,33.048 30.54,32.948 30.44,32.82C30.427,32.8 30.39,32.75 30.331,32.67C29.997,32.227 29.394,31.396 28.52,30.177L28.52,33.348C28.52,33.596 28.555,33.727 28.625,33.74C28.695,33.754 28.823,33.761 29.01,33.761L29.05,33.761C29.13,33.761 29.17,33.783 29.17,33.826C29.17,33.876 29.096,33.9 28.95,33.9C28.923,33.9 28.813,33.894 28.62,33.881C28.52,33.874 28.43,33.871 28.35,33.871C28.283,33.871 28.216,33.874 28.15,33.881C28.023,33.894 27.886,33.9 27.74,33.9C27.633,33.9 27.58,33.876 27.58,33.826C27.58,33.783 27.643,33.761 27.77,33.761L27.86,33.761L27.99,33.75C28.15,33.737 28.233,33.707 28.24,33.66C28.246,33.633 28.25,33.536 28.25,33.368L28.25,30.599C28.25,30.095 28.22,29.793 28.16,29.692C28.08,29.558 27.923,29.491 27.69,29.491C27.523,29.491 27.44,29.462 27.44,29.406C27.44,29.362 27.483,29.341 27.57,29.341L28.84,29.341L31.2,32.59L31.2,29.81C31.2,29.644 31.193,29.547 31.18,29.52C31.167,29.494 31.113,29.48 31.02,29.48C30.933,29.48 30.863,29.48 30.81,29.48L30.75,29.48C30.623,29.48 30.56,29.455 30.56,29.406C30.56,29.375 30.591,29.356 30.655,29.35C30.718,29.344 30.943,29.341 31.33,29.341C31.696,29.341 31.91,29.344 31.97,29.35C32.03,29.355 32.06,29.375 32.06,29.411Z" style="fill:rgb(3,4,4);fill-rule:nonzero;"/>
        <path d="M40.427,31.902C40.477,31.782 40.507,31.672 40.507,31.572C40.507,31.432 40.397,31.322 40.287,31.322C39.938,31.322 39.138,31.772 39.138,32.142C39.138,32.202 39.168,32.271 39.268,32.271C39.458,32.271 39.947,32.032 40.427,31.902ZM38.368,30.533C38.488,30.592 38.658,30.612 38.868,30.612C39.298,30.612 39.877,30.382 39.877,30.173C39.877,30.143 39.837,30.073 39.737,30.073C39.358,30.073 38.858,30.243 38.368,30.533ZM40.067,29.133C40.477,28.933 40.907,28.594 40.907,28.353C40.907,28.244 40.807,28.154 40.657,28.154C39.508,28.154 38.048,29.113 38.048,29.883C38.048,30.082 38.079,30.243 38.148,30.352C38.718,30.102 39.288,29.953 39.678,29.953C39.868,29.953 40.067,30.153 40.067,30.323C40.067,30.533 39.728,30.832 39.138,30.832C38.848,30.832 38.528,30.752 38.249,30.612C37.419,31.142 36.679,32.001 36.679,32.921C36.679,33.441 37.029,33.761 37.509,33.761C38.638,33.761 39.868,32.871 40.327,32.112C39.938,32.211 39.558,32.412 39.428,32.412C39.238,32.412 38.838,32.222 38.838,31.962C38.838,31.552 39.668,31.142 40.127,31.142C40.337,31.142 40.677,31.372 40.677,31.632C40.677,31.702 40.667,31.782 40.647,31.851C40.747,31.831 40.847,31.822 40.947,31.822C41.287,31.822 41.417,31.942 41.417,32.021C41.417,32.101 41.217,32.271 41.177,32.271C41.157,32.271 41.157,32.242 41.127,32.211C41.007,32.092 40.977,32.061 40.687,32.061C40.647,32.061 40.617,32.061 40.577,32.072C40.217,32.921 38.968,34 37.829,34C37.139,34 36.06,33.411 36.06,32.551C36.06,31.682 36.989,30.902 37.969,30.433C37.729,30.243 37.569,29.993 37.569,29.703C37.569,28.733 39.028,27.834 40.377,27.834C40.757,27.834 41.037,28.104 41.037,28.384C41.037,28.773 40.347,29.443 40.217,29.443C40.147,29.443 40.018,29.273 40.018,29.193C40.018,29.173 40.027,29.153 40.067,29.133Z" style="fill:rgb(3,4,4);fill-rule:nonzero;"/>
        <path d="M49.839,32.4C49.839,32.42 49.836,32.477 49.829,32.571C49.803,32.931 49.79,33.184 49.79,33.33C49.79,33.431 49.799,33.577 49.819,33.77L49.819,33.841C49.819,33.907 49.793,33.94 49.739,33.94C49.686,33.94 49.633,33.884 49.579,33.77L49.489,33.58C49.482,33.567 49.473,33.547 49.46,33.52C49.159,33.814 48.746,33.96 48.219,33.96C47.546,33.96 46.986,33.736 46.54,33.287C46.093,32.838 45.869,32.274 45.869,31.596C45.869,30.917 46.076,30.36 46.489,29.924C46.903,29.489 47.429,29.27 48.069,29.27C48.569,29.27 48.989,29.4 49.329,29.661C49.356,29.687 49.383,29.701 49.409,29.701C49.442,29.701 49.473,29.657 49.5,29.571C49.546,29.424 49.603,29.351 49.669,29.351C49.716,29.351 49.739,29.377 49.739,29.431C49.739,29.437 49.732,29.467 49.719,29.52C49.679,29.747 49.656,30.084 49.649,30.531C49.643,30.81 49.606,30.951 49.54,30.951C49.486,30.951 49.449,30.901 49.429,30.802C49.363,30.444 49.283,30.179 49.189,30.007C48.976,29.629 48.626,29.44 48.139,29.44C47.732,29.44 47.409,29.636 47.169,30.026C46.929,30.417 46.81,30.947 46.81,31.616C46.81,32.284 46.942,32.814 47.21,33.205C47.476,33.595 47.836,33.79 48.29,33.79C48.636,33.79 48.924,33.674 49.154,33.44C49.384,33.206 49.536,32.882 49.609,32.467C49.643,32.296 49.686,32.21 49.739,32.21C49.806,32.21 49.839,32.274 49.839,32.4Z" style="fill:rgb(3,4,4);fill-rule:nonzero;"/>
        <path d="M55.21,32.991C55.21,33.364 55.203,33.677 55.189,33.931C55.149,33.937 55.1,33.94 55.04,33.94C55.033,33.94 54.981,33.935 54.884,33.926C54.788,33.915 54.663,33.911 54.509,33.911L54.04,33.911L52.33,33.891L51.509,33.891C51.423,33.891 51.379,33.869 51.379,33.825C51.379,33.788 51.509,33.759 51.77,33.741C51.843,33.734 51.888,33.717 51.904,33.69C51.921,33.664 51.929,33.59 51.929,33.47L51.929,30.112C51.929,29.738 51.899,29.541 51.839,29.521C51.813,29.508 51.754,29.501 51.665,29.501C51.574,29.501 51.516,29.497 51.489,29.491C51.416,29.491 51.379,29.464 51.379,29.411C51.379,29.364 51.423,29.341 51.51,29.341L53.128,29.341C53.256,29.341 53.319,29.369 53.319,29.425C53.319,29.462 53.21,29.484 52.989,29.491C52.883,29.497 52.819,29.521 52.799,29.56C52.779,29.601 52.77,29.745 52.77,29.992L52.77,33.71C53.035,33.717 53.227,33.721 53.347,33.721C54.064,33.721 54.511,33.65 54.69,33.511C54.836,33.397 54.93,33.157 54.969,32.79C54.983,32.631 55.02,32.551 55.08,32.551C55.166,32.551 55.21,32.697 55.21,32.991Z" style="fill:rgb(3,4,4);fill-rule:nonzero;"/>
        <path d="M60.309,32.815C60.309,32.822 60.304,32.865 60.294,32.942C60.284,33.02 60.279,33.09 60.279,33.151L60.279,33.73C60.279,33.791 60.289,33.858 60.309,33.931L58.64,33.9L56.73,33.931C56.589,33.931 56.519,33.904 56.519,33.851C56.519,33.791 56.559,33.761 56.639,33.761C56.853,33.761 56.978,33.746 57.014,33.716C57.051,33.685 57.069,33.577 57.069,33.391L57.069,29.951C57.069,29.677 57.045,29.532 56.999,29.516C56.952,29.499 56.835,29.491 56.649,29.491C56.569,29.491 56.529,29.467 56.529,29.42C56.529,29.367 56.572,29.341 56.659,29.341L60.079,29.341L60.079,29.41L60.089,29.557C60.103,29.656 60.129,29.952 60.169,30.444C60.176,30.477 60.179,30.517 60.179,30.562C60.179,30.648 60.156,30.69 60.109,30.69C60.049,30.69 60.006,30.624 59.98,30.491C59.887,29.984 59.711,29.687 59.452,29.601C59.306,29.554 58.961,29.531 58.417,29.531L57.909,29.531L57.909,31.4L58.147,31.4C58.57,31.4 58.832,31.366 58.931,31.295C59.03,31.226 59.096,31.034 59.129,30.721C59.149,30.534 59.189,30.44 59.249,30.44C59.315,30.44 59.349,30.507 59.349,30.641C59.349,30.721 59.344,30.844 59.334,31.011C59.324,31.177 59.319,31.304 59.319,31.391C59.319,31.824 59.327,32.121 59.342,32.281C59.347,32.334 59.349,32.377 59.349,32.411C59.349,32.518 59.316,32.571 59.251,32.571C59.191,32.571 59.152,32.487 59.132,32.321C59.093,31.96 59.027,31.746 58.935,31.676C58.843,31.605 58.583,31.571 58.156,31.571L57.909,31.571L57.909,33.73C58.885,33.724 59.459,33.697 59.631,33.65C59.897,33.577 60.053,33.257 60.099,32.69C60.106,32.591 60.143,32.54 60.209,32.54C60.275,32.54 60.309,32.632 60.309,32.815Z" style="fill:rgb(3,4,4);fill-rule:nonzero;"/>
        <path d="M65.279,31.675C65.279,30.904 65.122,30.295 64.809,29.85C64.609,29.564 64.332,29.42 63.979,29.42C63.492,29.42 63.139,29.686 62.919,30.219C62.766,30.591 62.689,31.063 62.689,31.636C62.689,32.321 62.809,32.856 63.049,33.242C63.289,33.628 63.622,33.821 64.049,33.821C64.869,33.821 65.279,33.105 65.279,31.675ZM66.219,31.645C66.219,32.291 66.009,32.838 65.589,33.287C65.169,33.736 64.656,33.96 64.049,33.96C63.402,33.96 62.857,33.733 62.414,33.277C61.971,32.822 61.749,32.264 61.749,31.605C61.749,30.92 61.96,30.36 62.384,29.924C62.807,29.489 63.349,29.27 64.009,29.27C64.636,29.27 65.161,29.498 65.584,29.954C66.007,30.41 66.219,30.974 66.219,31.645Z" style="fill:rgb(3,4,4);fill-rule:nonzero;"/>
        <path d="M70.349,30.406C70.349,29.809 70.054,29.511 69.466,29.511C69.314,29.511 69.22,29.525 69.183,29.556C69.147,29.585 69.129,29.657 69.129,29.769L69.129,31.4C69.942,31.4 70.349,31.069 70.349,30.406ZM71.929,33.641C71.929,33.854 71.743,33.96 71.371,33.96C71.012,33.96 70.72,33.825 70.494,33.552C70.394,33.433 70.328,33.313 70.294,33.194C70.261,33.074 70.222,32.792 70.175,32.347C70.142,32.062 70.05,31.863 69.901,31.75C69.752,31.637 69.494,31.574 69.129,31.56L69.129,33.621C69.109,33.714 69.276,33.761 69.63,33.761C69.703,33.761 69.739,33.784 69.739,33.83C69.739,33.877 69.692,33.9 69.599,33.9C69.525,33.9 69.456,33.9 69.389,33.9L69.039,33.9L68.179,33.9L67.989,33.9C67.802,33.9 67.709,33.879 67.709,33.835C67.709,33.786 67.742,33.761 67.809,33.761L67.949,33.761C68.175,33.761 68.289,33.714 68.289,33.621L68.289,29.67C68.289,29.597 68.271,29.549 68.234,29.525C68.197,29.502 68.101,29.491 67.944,29.491C67.787,29.491 67.709,29.464 67.709,29.411C67.709,29.364 67.755,29.341 67.849,29.341L69.739,29.341C70.186,29.341 70.544,29.432 70.814,29.614C71.084,29.797 71.219,30.038 71.219,30.336C71.219,30.662 71.075,30.925 70.789,31.127C70.502,31.33 70.099,31.448 69.579,31.481C70.139,31.541 70.524,31.687 70.734,31.919C70.944,32.151 71.079,32.569 71.139,33.173C71.179,33.585 71.302,33.79 71.509,33.79C71.542,33.79 71.559,33.781 71.559,33.761C71.559,33.755 71.55,33.734 71.534,33.698C71.517,33.663 71.509,33.635 71.509,33.615C71.509,33.492 71.575,33.431 71.709,33.431C71.856,33.431 71.929,33.5 71.929,33.641Z" style="fill:rgb(3,4,4);fill-rule:nonzero;"/>
        <path d="M75.529,32.27L74.885,30.562C74.724,30.961 74.501,31.531 74.217,32.27L75.529,32.27ZM77.559,33.841C77.559,33.881 77.492,33.9 77.359,33.9L77.289,33.9L76.669,33.9L76.389,33.9C76.275,33.9 76.119,33.9 75.919,33.9L75.619,33.9L75.439,33.9L75.389,33.9C75.269,33.9 75.209,33.874 75.209,33.821C75.209,33.768 75.329,33.738 75.569,33.732C75.856,33.725 75.999,33.692 75.999,33.632C75.999,33.619 75.979,33.557 75.939,33.444C75.925,33.391 75.849,33.169 75.709,32.778L75.589,32.44L74.159,32.44C73.885,33.127 73.749,33.524 73.749,33.631C73.749,33.69 73.789,33.724 73.869,33.73L73.999,33.741L74.149,33.741L74.239,33.77C74.319,33.77 74.359,33.791 74.359,33.831C74.359,33.877 74.289,33.9 74.149,33.9C74.129,33.9 74.01,33.895 73.794,33.886C73.577,33.875 73.385,33.871 73.219,33.871L73.129,33.871L73.039,33.886L72.929,33.9L72.909,33.9C72.802,33.9 72.749,33.881 72.749,33.84C72.749,33.794 72.793,33.767 72.879,33.76C72.999,33.754 73.079,33.747 73.119,33.74C73.232,33.72 73.306,33.69 73.339,33.65C73.379,33.63 73.542,33.249 73.829,32.507C73.942,32.206 74.052,31.926 74.159,31.665C74.199,31.572 74.226,31.501 74.239,31.455C74.252,31.408 74.279,31.337 74.319,31.244C74.432,30.97 74.592,30.556 74.799,30.001L74.95,29.581L75.019,29.4C75.059,29.301 75.099,29.25 75.139,29.25C75.159,29.25 75.202,29.344 75.269,29.531C75.469,30.018 75.985,31.304 76.819,33.391C76.899,33.597 76.975,33.707 77.049,33.721C77.069,33.727 77.175,33.737 77.369,33.75C77.496,33.757 77.559,33.787 77.559,33.841Z" style="fill:rgb(3,4,4);fill-rule:nonzero;"/>
        <path d="M80.329,27.781C80.329,28.268 80.135,28.621 79.749,28.841C79.482,28.994 79.259,29.071 79.079,29.071C79.005,29.071 78.969,29.044 78.969,28.991C78.969,28.944 79.009,28.911 79.089,28.891C79.396,28.804 79.609,28.701 79.729,28.58C79.849,28.46 79.909,28.287 79.909,28.06C79.909,27.881 79.865,27.727 79.779,27.601C79.779,27.827 79.635,27.94 79.349,27.94C79.202,27.94 79.081,27.893 78.984,27.795C78.887,27.699 78.839,27.58 78.839,27.44C78.839,27.274 78.9,27.132 79.024,27.016C79.147,26.899 79.299,26.841 79.479,26.841C79.726,26.841 79.929,26.929 80.089,27.105C80.249,27.282 80.329,27.507 80.329,27.781Z" style="fill:rgb(3,4,4);fill-rule:nonzero;"/>
        <path d="M85.279,32.606C85.279,32.978 85.119,33.297 84.799,33.562C84.479,33.828 84.092,33.96 83.639,33.96C83.299,33.96 82.949,33.857 82.589,33.65C82.549,33.637 82.522,33.631 82.509,33.631C82.469,33.631 82.445,33.662 82.439,33.725C82.432,33.788 82.422,33.843 82.409,33.89C82.396,33.937 82.362,33.96 82.309,33.96C82.242,33.96 82.209,33.927 82.209,33.861C82.209,33.847 82.215,33.747 82.229,33.56C82.242,33.374 82.249,33.214 82.249,33.08L82.249,32.571C82.249,32.444 82.282,32.381 82.349,32.381C82.416,32.381 82.465,32.484 82.499,32.69C82.626,33.424 83.019,33.79 83.679,33.79C84.239,33.79 84.519,33.512 84.519,32.955C84.519,32.709 84.452,32.51 84.319,32.357C84.186,32.205 83.925,32.032 83.539,31.839C83.032,31.587 82.709,31.388 82.569,31.242C82.389,31.049 82.299,30.81 82.299,30.525C82.299,30.16 82.432,29.86 82.699,29.624C82.965,29.389 83.302,29.27 83.709,29.27C83.962,29.27 84.232,29.347 84.519,29.5C84.552,29.52 84.579,29.531 84.599,29.531C84.646,29.531 84.675,29.482 84.689,29.386C84.702,29.289 84.742,29.241 84.809,29.241C84.876,29.241 84.909,29.274 84.909,29.341C84.909,29.354 84.905,29.381 84.899,29.42C84.885,29.527 84.879,29.664 84.879,29.83C84.879,29.931 84.889,30.111 84.909,30.371C84.916,30.397 84.919,30.427 84.919,30.46C84.919,30.54 84.892,30.58 84.839,30.58C84.779,30.58 84.735,30.521 84.709,30.402C84.649,30.111 84.527,29.878 84.344,29.704C84.161,29.528 83.945,29.44 83.699,29.44C83.219,29.44 82.979,29.696 82.979,30.207C82.979,30.433 83.042,30.619 83.169,30.765C83.235,30.845 83.309,30.908 83.389,30.954C83.469,31 83.702,31.117 84.089,31.302C84.522,31.515 84.829,31.719 85.009,31.914C85.189,32.111 85.279,32.341 85.279,32.606Z" style="fill:rgb(3,4,4);fill-rule:nonzero;"/>
        <path d="M93.629,32.4C93.629,32.42 93.626,32.477 93.619,32.571C93.592,32.931 93.579,33.184 93.579,33.33C93.579,33.431 93.589,33.577 93.609,33.77L93.609,33.841C93.609,33.907 93.582,33.94 93.529,33.94C93.476,33.94 93.422,33.884 93.369,33.77L93.279,33.58C93.272,33.567 93.262,33.547 93.249,33.52C92.949,33.814 92.536,33.96 92.009,33.96C91.335,33.96 90.775,33.736 90.329,33.287C89.882,32.838 89.659,32.274 89.659,31.596C89.659,30.917 89.865,30.36 90.279,29.924C90.692,29.489 91.219,29.27 91.859,29.27C92.359,29.27 92.779,29.4 93.119,29.661C93.146,29.687 93.172,29.701 93.199,29.701C93.232,29.701 93.262,29.657 93.289,29.571C93.335,29.424 93.392,29.351 93.459,29.351C93.505,29.351 93.529,29.377 93.529,29.431C93.529,29.437 93.522,29.467 93.509,29.52C93.469,29.747 93.445,30.084 93.439,30.531C93.432,30.81 93.396,30.951 93.329,30.951C93.275,30.951 93.239,30.901 93.219,30.802C93.152,30.444 93.072,30.179 92.979,30.007C92.766,29.629 92.416,29.44 91.929,29.44C91.522,29.44 91.199,29.636 90.959,30.026C90.719,30.417 90.599,30.947 90.599,31.616C90.599,32.284 90.732,32.814 90.999,33.205C91.266,33.595 91.626,33.79 92.079,33.79C92.425,33.79 92.714,33.674 92.944,33.44C93.174,33.206 93.326,32.882 93.399,32.467C93.432,32.296 93.476,32.21 93.529,32.21C93.595,32.21 93.629,32.274 93.629,32.4Z" style="fill:rgb(3,4,4);fill-rule:nonzero;"/>
        <path d="M97.589,32.27L96.945,30.562C96.784,30.961 96.561,31.531 96.277,32.27L97.589,32.27ZM99.619,33.841C99.619,33.881 99.552,33.9 99.419,33.9L99.349,33.9L98.729,33.9L98.449,33.9C98.335,33.9 98.179,33.9 97.979,33.9L97.679,33.9L97.499,33.9L97.449,33.9C97.329,33.9 97.269,33.874 97.269,33.821C97.269,33.768 97.389,33.738 97.629,33.732C97.916,33.725 98.059,33.692 98.059,33.632C98.059,33.619 98.039,33.557 97.999,33.444C97.985,33.391 97.909,33.169 97.769,32.778L97.649,32.44L96.219,32.44C95.945,33.127 95.809,33.524 95.809,33.631C95.809,33.69 95.849,33.724 95.929,33.73L96.059,33.741L96.209,33.741L96.299,33.77C96.379,33.77 96.419,33.791 96.419,33.831C96.419,33.877 96.349,33.9 96.209,33.9C96.189,33.9 96.07,33.895 95.854,33.886C95.637,33.875 95.445,33.871 95.279,33.871L95.189,33.871L95.099,33.886L94.989,33.9L94.969,33.9C94.862,33.9 94.809,33.881 94.809,33.84C94.809,33.794 94.853,33.767 94.939,33.76C95.059,33.754 95.139,33.747 95.179,33.74C95.293,33.72 95.366,33.69 95.399,33.65C95.439,33.63 95.602,33.249 95.889,32.507C96.002,32.206 96.112,31.926 96.219,31.665C96.259,31.572 96.286,31.501 96.299,31.455C96.313,31.408 96.339,31.337 96.379,31.244C96.492,30.97 96.652,30.556 96.859,30.001L97.01,29.581L97.079,29.4C97.119,29.301 97.159,29.25 97.199,29.25C97.219,29.25 97.262,29.344 97.329,29.531C97.529,30.018 98.045,31.304 98.879,33.391C98.959,33.597 99.035,33.707 99.109,33.721C99.129,33.727 99.235,33.737 99.429,33.75C99.556,33.757 99.619,33.787 99.619,33.841Z" style="fill:rgb(3,4,4);fill-rule:nonzero;"/>
        <path d="M103.159,30.406C103.159,29.809 102.865,29.511 102.276,29.511C102.125,29.511 102.03,29.525 101.994,29.556C101.958,29.585 101.939,29.657 101.939,29.769L101.939,31.4C102.752,31.4 103.159,31.069 103.159,30.406ZM104.739,33.641C104.739,33.854 104.553,33.96 104.181,33.96C103.823,33.96 103.53,33.825 103.305,33.552C103.205,33.433 103.138,33.313 103.105,33.194C103.072,33.074 103.032,32.792 102.985,32.347C102.952,32.062 102.861,31.863 102.711,31.75C102.562,31.637 102.305,31.574 101.939,31.56L101.939,33.621C101.919,33.714 102.086,33.761 102.441,33.761C102.513,33.761 102.549,33.784 102.549,33.83C102.549,33.877 102.502,33.9 102.409,33.9C102.336,33.9 102.266,33.9 102.199,33.9L101.849,33.9L100.989,33.9L100.799,33.9C100.613,33.9 100.52,33.879 100.52,33.835C100.52,33.786 100.553,33.761 100.619,33.761L100.759,33.761C100.986,33.761 101.099,33.714 101.099,33.621L101.099,29.67C101.099,29.597 101.081,29.549 101.044,29.525C101.008,29.502 100.911,29.491 100.754,29.491C100.598,29.491 100.52,29.464 100.52,29.411C100.52,29.364 100.566,29.341 100.659,29.341L102.549,29.341C102.996,29.341 103.354,29.432 103.625,29.614C103.895,29.797 104.029,30.038 104.029,30.336C104.029,30.662 103.886,30.925 103.599,31.127C103.313,31.33 102.909,31.448 102.389,31.481C102.949,31.541 103.334,31.687 103.544,31.919C103.754,32.151 103.889,32.569 103.949,33.173C103.989,33.585 104.113,33.79 104.319,33.79C104.353,33.79 104.369,33.781 104.369,33.761C104.369,33.755 104.361,33.734 104.344,33.698C104.328,33.663 104.319,33.635 104.319,33.615C104.319,33.492 104.386,33.431 104.52,33.431C104.666,33.431 104.739,33.5 104.739,33.641Z" style="fill:rgb(3,4,4);fill-rule:nonzero;"/>
        <path d="M108.529,30.406C108.529,29.809 108.235,29.511 107.646,29.511C107.495,29.511 107.4,29.525 107.364,29.556C107.328,29.585 107.31,29.657 107.31,29.769L107.31,31.4C108.123,31.4 108.529,31.069 108.529,30.406ZM110.109,33.641C110.109,33.854 109.923,33.96 109.551,33.96C109.193,33.96 108.9,33.825 108.675,33.552C108.575,33.433 108.508,33.313 108.475,33.194C108.442,33.074 108.402,32.792 108.355,32.347C108.322,32.062 108.231,31.863 108.082,31.75C107.932,31.637 107.675,31.574 107.31,31.56L107.31,33.621C107.29,33.714 107.457,33.761 107.811,33.761C107.883,33.761 107.919,33.784 107.919,33.83C107.919,33.877 107.873,33.9 107.779,33.9C107.706,33.9 107.636,33.9 107.569,33.9L107.219,33.9L106.359,33.9L106.169,33.9C105.983,33.9 105.89,33.879 105.89,33.835C105.89,33.786 105.923,33.761 105.989,33.761L106.129,33.761C106.356,33.761 106.469,33.714 106.469,33.621L106.469,29.67C106.469,29.597 106.451,29.549 106.415,29.525C106.378,29.502 106.281,29.491 106.125,29.491C105.968,29.491 105.89,29.464 105.89,29.411C105.89,29.364 105.936,29.341 106.029,29.341L107.919,29.341C108.366,29.341 108.725,29.432 108.995,29.614C109.265,29.797 109.399,30.038 109.399,30.336C109.399,30.662 109.256,30.925 108.969,31.127C108.683,31.33 108.279,31.448 107.759,31.481C108.319,31.541 108.705,31.687 108.915,31.919C109.125,32.151 109.259,32.569 109.319,33.173C109.359,33.585 109.483,33.79 109.689,33.79C109.723,33.79 109.739,33.781 109.739,33.761C109.739,33.755 109.731,33.734 109.714,33.698C109.698,33.663 109.689,33.635 109.689,33.615C109.689,33.492 109.756,33.431 109.89,33.431C110.036,33.431 110.109,33.5 110.109,33.641Z" style="fill:rgb(3,4,4);fill-rule:nonzero;"/>
        <path d="M113.229,33.83C113.229,33.871 113.2,33.891 113.14,33.891L113.04,33.891L112.83,33.891L112.569,33.891L111.5,33.891L111.459,33.891C111.346,33.891 111.29,33.873 111.29,33.838C111.29,33.792 111.363,33.767 111.51,33.761C111.709,33.747 111.814,33.724 111.825,33.69C111.834,33.657 111.839,33.512 111.839,33.257L111.839,30.014C111.839,29.752 111.833,29.6 111.819,29.556C111.806,29.513 111.756,29.487 111.669,29.48L111.47,29.48L111.37,29.48C111.31,29.48 111.28,29.457 111.28,29.411C111.28,29.364 111.323,29.341 111.41,29.341C111.403,29.341 111.423,29.341 111.47,29.341L113.06,29.341C113.166,29.341 113.22,29.367 113.22,29.42C113.22,29.46 113.106,29.484 112.879,29.491C112.786,29.491 112.729,29.506 112.709,29.536C112.689,29.565 112.68,29.657 112.68,29.81L112.68,33.58C112.68,33.647 112.705,33.69 112.754,33.71C112.805,33.73 112.923,33.747 113.109,33.761C113.189,33.768 113.229,33.79 113.229,33.83Z" style="fill:rgb(3,4,4);fill-rule:nonzero;"/>
        <path d="M117.109,32.27L116.466,30.562C116.304,30.961 116.081,31.531 115.798,32.27L117.109,32.27ZM119.14,33.841C119.14,33.881 119.073,33.9 118.939,33.9L118.87,33.9L118.25,33.9L117.969,33.9C117.856,33.9 117.7,33.9 117.5,33.9L117.2,33.9L117.02,33.9L116.969,33.9C116.85,33.9 116.79,33.874 116.79,33.821C116.79,33.768 116.91,33.738 117.149,33.732C117.436,33.725 117.58,33.692 117.58,33.632C117.58,33.619 117.56,33.557 117.52,33.444C117.506,33.391 117.43,33.169 117.29,32.778L117.169,32.44L115.739,32.44C115.466,33.127 115.33,33.524 115.33,33.631C115.33,33.69 115.37,33.724 115.45,33.73L115.58,33.741L115.729,33.741L115.819,33.77C115.899,33.77 115.939,33.791 115.939,33.831C115.939,33.877 115.87,33.9 115.729,33.9C115.709,33.9 115.591,33.895 115.375,33.886C115.158,33.875 114.966,33.871 114.799,33.871L114.709,33.871L114.62,33.886L114.509,33.9L114.489,33.9C114.383,33.9 114.33,33.881 114.33,33.84C114.33,33.794 114.373,33.767 114.459,33.76C114.58,33.754 114.66,33.747 114.7,33.74C114.813,33.72 114.886,33.69 114.919,33.65C114.959,33.63 115.123,33.249 115.41,32.507C115.523,32.206 115.633,31.926 115.74,31.665C115.78,31.572 115.806,31.501 115.82,31.455C115.833,31.408 115.86,31.337 115.899,31.244C116.013,30.97 116.173,30.556 116.38,30.001L116.53,29.581L116.6,29.4C116.64,29.301 116.68,29.25 116.72,29.25C116.739,29.25 116.783,29.344 116.85,29.531C117.049,30.018 117.566,31.304 118.399,33.391C118.479,33.597 118.556,33.707 118.629,33.721C118.649,33.727 118.756,33.737 118.95,33.75C119.076,33.757 119.14,33.787 119.14,33.841Z" style="fill:rgb(3,4,4);fill-rule:nonzero;"/>
        <path d="M124.649,32.511C124.649,32.544 124.589,32.564 124.469,32.571L124.149,32.571C124.116,32.577 124.091,32.607 124.074,32.661C124.058,32.714 124.049,32.834 124.049,33.02L124.049,33.42C123.609,33.781 123.103,33.96 122.529,33.96C121.796,33.96 121.212,33.753 120.779,33.337C120.346,32.921 120.129,32.367 120.129,31.675C120.129,30.957 120.341,30.377 120.764,29.934C121.188,29.492 121.746,29.27 122.439,29.27C122.799,29.27 123.186,29.384 123.599,29.611C123.633,29.631 123.663,29.641 123.689,29.641C123.743,29.641 123.779,29.597 123.799,29.511C123.839,29.391 123.886,29.33 123.939,29.33C123.993,29.33 124.02,29.357 124.02,29.411C124.02,29.397 124.013,29.454 124,29.58C123.979,29.774 123.969,30.157 123.969,30.73C123.969,30.884 123.929,30.96 123.849,30.96C123.79,30.96 123.759,30.92 123.759,30.841C123.746,30.407 123.625,30.062 123.395,29.806C123.165,29.549 122.866,29.42 122.5,29.42C122.053,29.42 121.703,29.62 121.449,30.019C121.196,30.418 121.069,30.964 121.069,31.655C121.069,32.321 121.198,32.846 121.455,33.232C121.711,33.618 122.06,33.81 122.5,33.81C122.899,33.81 123.146,33.685 123.239,33.434C123.272,33.348 123.29,33.209 123.29,33.017C123.29,32.779 123.274,32.645 123.244,32.615C123.214,32.585 123.089,32.571 122.869,32.571L122.799,32.571C122.766,32.571 122.736,32.571 122.709,32.571C122.656,32.571 122.629,32.549 122.629,32.505C122.629,32.449 122.709,32.42 122.869,32.42L124.479,32.42C124.593,32.42 124.649,32.451 124.649,32.511Z" style="fill:rgb(3,4,4);fill-rule:nonzero;"/>
        <path d="M129.529,32.815C129.529,32.822 129.524,32.865 129.514,32.942C129.504,33.02 129.5,33.09 129.5,33.151L129.5,33.73C129.5,33.791 129.509,33.858 129.529,33.931L127.86,33.9L125.95,33.931C125.81,33.931 125.739,33.904 125.739,33.851C125.739,33.791 125.779,33.761 125.859,33.761C126.073,33.761 126.198,33.746 126.234,33.716C126.271,33.685 126.289,33.577 126.289,33.391L126.289,29.951C126.289,29.677 126.266,29.532 126.219,29.516C126.172,29.499 126.056,29.491 125.869,29.491C125.789,29.491 125.75,29.467 125.75,29.42C125.75,29.367 125.792,29.341 125.879,29.341L129.298,29.341L129.298,29.41L129.309,29.557C129.323,29.656 129.349,29.952 129.389,30.444C129.396,30.477 129.399,30.517 129.399,30.562C129.399,30.648 129.376,30.69 129.33,30.69C129.27,30.69 129.227,30.624 129.2,30.491C129.106,29.984 128.931,29.687 128.672,29.601C128.526,29.554 128.181,29.531 127.637,29.531L127.129,29.531L127.129,31.4L127.367,31.4C127.791,31.4 128.052,31.366 128.151,31.295C128.25,31.226 128.315,31.034 128.349,30.721C128.369,30.534 128.409,30.44 128.468,30.44C128.535,30.44 128.569,30.507 128.569,30.641C128.569,30.721 128.563,30.844 128.554,31.011C128.544,31.177 128.539,31.304 128.539,31.391C128.539,31.824 128.547,32.121 128.562,32.281C128.567,32.334 128.569,32.377 128.569,32.411C128.569,32.518 128.535,32.571 128.47,32.571C128.412,32.571 128.371,32.487 128.352,32.321C128.313,31.96 128.246,31.746 128.155,31.676C128.063,31.605 127.803,31.571 127.376,31.571L127.129,31.571L127.129,33.73C128.104,33.724 128.679,33.697 128.852,33.65C129.117,33.577 129.272,33.257 129.319,32.69C129.326,32.591 129.363,32.54 129.429,32.54C129.496,32.54 129.529,32.632 129.529,32.815Z" style="fill:rgb(3,4,4);fill-rule:nonzero;"/>
        <path d="M138.429,33.821C138.429,33.867 138.329,33.891 138.129,33.891L137.859,33.891L137.119,33.891C137.006,33.891 136.932,33.891 136.899,33.891L136.739,33.891C136.592,33.897 136.519,33.875 136.519,33.826C136.519,33.789 136.575,33.767 136.686,33.761C136.902,33.754 137.016,33.724 137.029,33.67C137.042,33.637 137.049,33.527 137.049,33.341L137.049,31.511L135.159,31.511L135.159,33.571C135.172,33.644 135.2,33.69 135.243,33.71C135.285,33.73 135.398,33.744 135.581,33.75C135.653,33.75 135.689,33.774 135.689,33.821C135.689,33.867 135.623,33.891 135.489,33.891L135.329,33.891C135.236,33.891 135.099,33.891 134.919,33.891L133.939,33.891C133.839,33.891 133.789,33.867 133.789,33.821C133.789,33.774 133.886,33.747 134.079,33.741C134.226,33.734 134.306,33.694 134.319,33.621L134.319,29.881C134.319,29.694 134.315,29.594 134.309,29.58C134.302,29.527 134.242,29.5 134.129,29.5C133.902,29.494 133.789,29.46 133.789,29.4C133.789,29.361 133.835,29.341 133.929,29.341L135.509,29.341C135.623,29.341 135.679,29.367 135.679,29.42C135.679,29.48 135.591,29.507 135.414,29.5C135.303,29.5 135.232,29.512 135.203,29.536C135.174,29.559 135.159,29.627 135.159,29.741L135.159,31.321L137.049,31.321L137.049,29.963C137.049,29.753 137.042,29.635 137.029,29.609C137.016,29.53 136.951,29.497 136.833,29.511L136.646,29.511C136.562,29.497 136.519,29.468 136.519,29.426C136.519,29.369 136.589,29.341 136.729,29.341L138.179,29.341C138.339,29.341 138.419,29.364 138.419,29.411C138.419,29.464 138.374,29.491 138.284,29.491C138.194,29.491 138.119,29.494 138.059,29.5C137.972,29.5 137.922,29.518 137.909,29.551C137.896,29.584 137.889,29.69 137.889,29.871L137.889,33.33C137.889,33.557 137.906,33.682 137.939,33.705C137.972,33.729 138.089,33.741 138.289,33.741C138.382,33.741 138.429,33.768 138.429,33.821Z" style="fill:rgb(3,4,4);fill-rule:nonzero;"/>
        <path d="M143.479,31.675C143.479,30.904 143.322,30.295 143.009,29.85C142.809,29.564 142.532,29.42 142.179,29.42C141.692,29.42 141.339,29.686 141.119,30.219C140.966,30.591 140.889,31.063 140.889,31.636C140.889,32.321 141.009,32.856 141.249,33.242C141.489,33.628 141.822,33.821 142.249,33.821C143.069,33.821 143.479,33.105 143.479,31.675ZM144.419,31.645C144.419,32.291 144.209,32.838 143.789,33.287C143.369,33.736 142.856,33.96 142.249,33.96C141.603,33.96 141.058,33.733 140.614,33.277C140.171,32.822 139.949,32.264 139.949,31.605C139.949,30.92 140.161,30.36 140.584,29.924C141.007,29.489 141.549,29.27 142.209,29.27C142.836,29.27 143.361,29.498 143.784,29.954C144.208,30.41 144.419,30.974 144.419,31.645Z" style="fill:rgb(3,4,4);fill-rule:nonzero;"/>
        <path d="M150.399,29.42C150.399,29.467 150.346,29.491 150.239,29.491L150.189,29.491C150.122,29.491 150.056,29.491 149.989,29.491C149.882,29.491 149.829,29.557 149.829,29.689L149.829,31.532C149.829,32.175 149.815,32.59 149.789,32.776C149.762,32.962 149.692,33.147 149.579,33.333C149.319,33.751 148.859,33.96 148.199,33.96C147.652,33.96 147.215,33.834 146.889,33.581C146.589,33.349 146.439,32.9 146.439,32.234L146.439,30.129C146.439,29.77 146.427,29.574 146.404,29.54C146.38,29.507 146.282,29.49 146.109,29.49C145.969,29.49 145.899,29.464 145.899,29.411C145.899,29.364 145.945,29.341 146.039,29.341L147.619,29.341C147.739,29.341 147.799,29.367 147.799,29.42C147.799,29.487 147.676,29.518 147.429,29.511C147.355,29.511 147.313,29.522 147.299,29.545C147.286,29.569 147.279,29.643 147.279,29.77L147.279,32.164C147.279,32.816 147.362,33.239 147.529,33.432C147.715,33.651 147.992,33.761 148.359,33.761C148.872,33.761 149.222,33.548 149.409,33.123C149.502,32.911 149.549,32.569 149.549,32.098C149.549,32.105 149.549,32.068 149.549,31.989C149.549,31.915 149.549,31.839 149.549,31.76L149.549,29.689C149.549,29.603 149.532,29.55 149.498,29.53C149.464,29.51 149.371,29.5 149.218,29.5C149.065,29.5 148.989,29.47 148.989,29.41C148.989,29.364 149.029,29.341 149.109,29.341L150.239,29.341C150.346,29.341 150.399,29.367 150.399,29.42Z" style="fill:rgb(3,4,4);fill-rule:nonzero;"/>
        <path d="M154.919,32.606C154.919,32.978 154.759,33.297 154.439,33.562C154.119,33.828 153.732,33.96 153.279,33.96C152.939,33.96 152.589,33.857 152.229,33.65C152.189,33.637 152.162,33.631 152.149,33.631C152.109,33.631 152.085,33.662 152.079,33.725C152.072,33.788 152.063,33.843 152.049,33.89C152.036,33.937 152.002,33.96 151.949,33.96C151.882,33.96 151.849,33.927 151.849,33.861C151.849,33.847 151.855,33.747 151.869,33.56C151.882,33.374 151.889,33.214 151.889,33.08L151.889,32.571C151.889,32.444 151.922,32.381 151.989,32.381C152.056,32.381 152.105,32.484 152.139,32.69C152.266,33.424 152.659,33.79 153.319,33.79C153.879,33.79 154.159,33.512 154.159,32.955C154.159,32.709 154.092,32.51 153.959,32.357C153.826,32.205 153.565,32.032 153.179,31.839C152.672,31.587 152.349,31.388 152.209,31.242C152.029,31.049 151.939,30.81 151.939,30.525C151.939,30.16 152.072,29.86 152.339,29.624C152.605,29.389 152.942,29.27 153.349,29.27C153.603,29.27 153.873,29.347 154.159,29.5C154.192,29.52 154.219,29.531 154.239,29.531C154.286,29.531 154.315,29.482 154.329,29.386C154.342,29.289 154.382,29.241 154.449,29.241C154.516,29.241 154.549,29.274 154.549,29.341C154.549,29.354 154.545,29.381 154.539,29.42C154.525,29.527 154.519,29.664 154.519,29.83C154.519,29.931 154.529,30.111 154.549,30.371C154.556,30.397 154.559,30.427 154.559,30.46C154.559,30.54 154.532,30.58 154.479,30.58C154.419,30.58 154.375,30.521 154.349,30.402C154.289,30.111 154.167,29.878 153.984,29.704C153.801,29.528 153.585,29.44 153.339,29.44C152.859,29.44 152.619,29.696 152.619,30.207C152.619,30.433 152.682,30.619 152.809,30.765C152.875,30.845 152.949,30.908 153.029,30.954C153.109,31 153.342,31.117 153.729,31.302C154.162,31.515 154.469,31.719 154.649,31.914C154.829,32.111 154.919,32.341 154.919,32.606Z" style="fill:rgb(3,4,4);fill-rule:nonzero;"/>
        <path d="M160.159,32.815C160.159,32.822 160.154,32.865 160.144,32.942C160.134,33.02 160.129,33.09 160.129,33.151L160.129,33.73C160.129,33.791 160.139,33.858 160.159,33.931L158.49,33.9L156.58,33.931C156.439,33.931 156.369,33.904 156.369,33.851C156.369,33.791 156.409,33.761 156.489,33.761C156.703,33.761 156.828,33.746 156.864,33.716C156.901,33.685 156.919,33.577 156.919,33.391L156.919,29.951C156.919,29.677 156.896,29.532 156.849,29.516C156.802,29.499 156.686,29.491 156.499,29.491C156.419,29.491 156.379,29.467 156.379,29.42C156.379,29.367 156.422,29.341 156.509,29.341L159.929,29.341L159.929,29.41L159.939,29.557C159.953,29.656 159.979,29.952 160.019,30.444C160.026,30.477 160.029,30.517 160.029,30.562C160.029,30.648 160.006,30.69 159.959,30.69C159.899,30.69 159.856,30.624 159.83,30.491C159.737,29.984 159.561,29.687 159.302,29.601C159.156,29.554 158.811,29.531 158.267,29.531L157.759,29.531L157.759,31.4L157.997,31.4C158.42,31.4 158.682,31.366 158.781,31.295C158.88,31.226 158.946,31.034 158.979,30.721C158.999,30.534 159.039,30.44 159.099,30.44C159.166,30.44 159.199,30.507 159.199,30.641C159.199,30.721 159.194,30.844 159.184,31.011C159.174,31.177 159.169,31.304 159.169,31.391C159.169,31.824 159.177,32.121 159.192,32.281C159.197,32.334 159.199,32.377 159.199,32.411C159.199,32.518 159.166,32.571 159.101,32.571C159.042,32.571 159.002,32.487 158.982,32.321C158.943,31.96 158.877,31.746 158.785,31.676C158.693,31.605 158.433,31.571 158.006,31.571L157.759,31.571L157.759,33.73C158.735,33.724 159.309,33.697 159.481,33.65C159.747,33.577 159.903,33.257 159.949,32.69C159.956,32.591 159.993,32.54 160.059,32.54C160.125,32.54 160.159,32.632 160.159,32.815Z" style="fill:rgb(3,4,4);fill-rule:nonzero;"/>
        <path d="M17.137,32.544C17.137,32.69 17.053,32.764 16.887,32.764C16.807,32.764 16.697,32.684 16.557,32.523C16.37,32.304 16.183,32.084 15.997,31.864C15.29,31.07 14.62,30.674 13.987,30.674C13.667,30.674 13.382,30.74 13.132,30.874C12.882,31.008 12.773,31.074 12.807,31.074C12.753,31.074 12.727,31.047 12.727,30.994C12.727,30.98 12.73,30.966 12.737,30.949C12.743,30.933 12.747,30.921 12.747,30.914C12.747,30.874 12.767,30.799 12.807,30.688C12.847,30.579 12.867,30.497 12.867,30.444C12.867,30.337 12.81,30.284 12.697,30.284L12.377,30.284C11.857,30.284 11.45,30.518 11.157,30.984C10.937,31.331 10.743,31.577 10.577,31.724C10.377,31.897 10.157,31.984 9.916,31.984C9.483,31.984 9.267,31.681 9.267,31.074C9.267,30.987 9.295,30.849 9.352,30.659C9.408,30.469 9.437,30.324 9.437,30.224C9.437,30.091 9.357,30.023 9.197,30.023C8.943,30.023 8.627,30.121 8.247,30.313C7.847,30.52 7.557,30.754 7.377,31.014C7.363,31.034 7.327,31.107 7.267,31.234C7.233,31.308 7.19,31.344 7.137,31.344C6.997,31.344 6.927,31.23 6.927,31.004L6.927,30.844C6.72,30.917 6.547,31.171 6.407,31.603C6.193,32.264 5.887,32.594 5.487,32.594C5.233,32.594 5.017,32.489 4.837,32.279C4.657,32.069 4.567,31.817 4.567,31.523C4.567,31.431 4.597,31.291 4.657,31.103C4.717,30.917 4.747,30.791 4.747,30.724C4.747,30.638 4.693,30.594 4.587,30.594C4.447,30.594 4.183,30.7 3.797,30.914C3.31,31.181 2.833,31.523 2.367,31.944C2.22,32.098 2.072,32.249 1.922,32.398C1.772,32.549 1.643,32.624 1.537,32.624C1.39,32.624 1.317,32.554 1.317,32.414C1.317,32.308 1.437,32.141 1.677,31.914C1.943,31.66 2.297,31.397 2.737,31.124C3.023,30.944 3.39,30.73 3.837,30.484C4.07,30.357 4.187,30.27 4.187,30.224C4.187,30.178 4.16,30.154 4.107,30.154L3.916,30.154C3.817,30.154 3.675,30.157 3.492,30.164C3.308,30.171 3.173,30.174 3.087,30.174C2.613,30.174 2.213,30.023 1.887,29.724C1.56,29.424 1.397,29.084 1.397,28.704C1.397,28.57 1.477,28.504 1.637,28.504C1.843,28.504 2.027,28.647 2.187,28.934L2.547,29.563C2.74,29.77 3.263,29.874 4.117,29.874C4.67,29.874 5.33,29.768 6.097,29.554C6.483,29.44 6.874,29.324 7.267,29.204C7.88,29.058 8.523,28.984 9.197,28.984C9.83,28.984 10.747,29.127 11.947,29.414C13.354,29.747 14.513,30.15 15.427,30.624C16.567,31.224 17.137,31.864 17.137,32.544Z" style="fill:rgb(3,4,4);fill-rule:nonzero;"/>
        <path d="M177.609,32.313C177.609,32.454 177.529,32.523 177.369,32.523C177.223,32.523 177.076,32.461 176.929,32.334C176.822,32.221 176.716,32.11 176.609,32.004C176.183,31.584 175.712,31.227 175.199,30.934C174.786,30.707 174.506,30.594 174.359,30.594C174.259,30.594 174.209,30.638 174.209,30.724C174.209,30.797 174.237,30.924 174.294,31.103C174.351,31.284 174.379,31.424 174.379,31.523C174.379,31.864 174.301,32.139 174.144,32.349C173.987,32.559 173.789,32.664 173.549,32.664C173.109,32.664 172.789,32.351 172.589,31.724C172.496,31.431 172.429,31.247 172.389,31.174C172.302,31.014 172.183,30.904 172.029,30.844C172.029,30.864 172.032,30.888 172.039,30.914C172.039,30.934 172.039,30.947 172.039,30.954C172.039,31.214 171.966,31.344 171.819,31.344C171.759,31.344 171.714,31.309 171.684,31.239C171.654,31.169 171.626,31.101 171.599,31.034C171.459,30.787 171.146,30.544 170.659,30.304C170.279,30.117 169.976,30.023 169.749,30.023C169.589,30.023 169.509,30.091 169.509,30.224C169.509,30.324 169.534,30.469 169.584,30.659C169.634,30.849 169.659,30.987 169.659,31.074C169.659,31.327 169.579,31.553 169.419,31.749C169.259,31.945 169.086,32.044 168.899,32.044C168.686,32.044 168.502,31.974 168.349,31.834C168.236,31.727 168.116,31.563 167.989,31.344C167.816,31.037 167.712,30.86 167.679,30.813C167.433,30.461 166.956,30.284 166.249,30.284C166.143,30.284 166.089,30.334 166.089,30.434C166.089,30.501 166.111,30.598 166.154,30.724C166.197,30.851 166.219,30.94 166.219,30.994C166.219,31.047 166.192,31.074 166.139,31.074C166.172,31.074 166.066,31.008 165.819,30.874C165.572,30.74 165.289,30.674 164.969,30.674C164.429,30.674 163.763,31.063 162.969,31.844C162.836,31.971 162.643,32.19 162.389,32.504C162.243,32.678 162.132,32.764 162.059,32.764C161.886,32.764 161.799,32.687 161.799,32.534L161.799,32.484C163.606,30.15 166.249,28.984 169.729,28.984C170.489,28.984 171.339,29.117 172.279,29.384C173.433,29.711 174.339,29.874 174.999,29.874C175.739,29.874 176.223,29.758 176.449,29.523C176.522,29.45 176.656,29.23 176.849,28.864C176.976,28.624 177.132,28.504 177.319,28.504C177.479,28.504 177.559,28.577 177.559,28.724C177.559,29.091 177.399,29.421 177.079,29.714C176.739,30.02 176.333,30.174 175.859,30.174C175.786,30.174 175.651,30.171 175.454,30.164C175.257,30.157 175.096,30.154 174.969,30.154C174.909,30.154 174.868,30.162 174.844,30.179C174.821,30.195 174.799,30.221 174.779,30.254L174.779,30.264C174.779,30.291 174.882,30.36 175.089,30.474C175.596,30.747 175.896,30.91 175.989,30.964C177.069,31.577 177.609,32.027 177.609,32.313Z" style="fill:rgb(3,4,4);fill-rule:nonzero;"/>
    </g>
</svg>
